# xmcd
#
# Track frame offsets:
#	210
#	19008
#	33767
#	53388
#	65954
#	88260
#	107300
#	125883
#	147571
#	165069
#	182751
#	202315
#	213370
#	230817
#	242298
#	256499
#	270882
#
# Disc length: 3874 seconds
#
# Revision: 1
# Processed by: cddbd v1.5.1PL0 Copyright (c) Steve Scherf et al.
# Submitted via: audiograbber 1.83.01
#
DISCID=ec0f2011
DTITLE=diverse - Ohrensausen
DYEAR=1900
DGENRE=
TTITLE0=Cheap Trick - Magical mystery tour
TTITLE1=Bangles - Walking down your street
TTITLE2=Kansas - Dust in the wind
TTITLE3=Johnny Cash - Folks out on the road
TTITLE4=Santana - Europa
TTITLE5=Cock Robin - Just around the corner
TTITLE6=Blood, sweat and tears - Spinning wheel
TTITLE7=Santana and Willie Nelson - They all went to Mexico
TTITLE8=Wolf! - Ticket to ride
TTITLE9=Reo Speedwagon - Keep the fire burnin'
TTITLE10=Don Johnson - Let it roll
TTITLE11=Guy Mitchell - Singin' the blues
TTITLE12=Albert Hammond - It never rains in southern california
TTITLE13=Willie Nelson - On the road again
TTITLE14=Mat Schuh - Biker queen
TTITLE15=Bluespumpn - Take me home, country roads
TTITLE16=Ted Nugent - Motor city madhouse
EXTD=
EXTT0=
EXTT1=
EXTT2=
EXTT3=
EXTT4=
EXTT5=
EXTT6=
EXTT7=
EXTT8=
EXTT9=
EXTT10=
EXTT11=
EXTT12=
EXTT13=
EXTT14=
EXTT15=
EXTT16=
PLAYORDER=
